<svg width="14" height="14" viewBox="0 0 14 14" fill="none" xmlns="http://www.w3.org/2000/svg">
<path d="M1.81479 13.6667C1.40739 13.6667 1.0585 13.5217 0.768128 13.2318C0.478251 12.9415 0.333313 12.5926 0.333313 12.1852V1.81481C0.333313 1.4074 0.478251 1.05851 0.768128 0.768143C1.0585 0.478266 1.40739 0.333328 1.81479 0.333328H12.1852C12.5926 0.333328 12.9415 0.478266 13.2318 0.768143C13.5217 1.05851 13.6666 1.4074 13.6666 1.81481V12.1852C13.6666 12.5926 13.5217 12.9415 13.2318 13.2318C12.9415 13.5217 12.5926 13.6667 12.1852 13.6667H1.81479ZM5.96294 9.79629C6.06171 9.79629 6.1543 9.78098 6.24072 9.75037C6.32714 9.71925 6.40739 9.66666 6.48146 9.59259L10.6852 5.38888C10.821 5.25308 10.8889 5.08641 10.8889 4.88888C10.8889 4.69135 10.8148 4.51851 10.6666 4.37037C10.5308 4.23456 10.358 4.16666 10.1481 4.16666C9.93825 4.16666 9.76541 4.23456 9.62961 4.37037L5.96294 8.03703L4.35183 6.42592C4.21603 6.29012 4.04936 6.22222 3.85183 6.22222C3.6543 6.22222 3.48146 6.29629 3.33331 6.44444C3.19751 6.58024 3.12961 6.75308 3.12961 6.96296C3.12961 7.17283 3.19751 7.34567 3.33331 7.48148L5.44442 9.59259C5.5185 9.66666 5.59875 9.71925 5.68516 9.75037C5.77158 9.78098 5.86418 9.79629 5.96294 9.79629Z" fill="#3E334E"/>
</svg>
